<svg width="400" height="400" viewBox="0 0 400 400" xmlns="http://www.w3.org/2000/svg">
  <!-- 背景渐变 -->
  <defs>
    <linearGradient id="bgGradient" x1="0%" y1="0%" x2="100%" y2="100%">
      <stop offset="0%" style="stop-color:#f8f9fa"/>
      <stop offset="100%" style="stop-color:#e9ecef"/>
    </linearGradient>
    
    <!-- 网格线样式 -->
    <pattern id="grid" width="20" height="20" patternUnits="userSpaceOnUse">
      <path d="M 20 0 L 0 0 0 20" fill="none" stroke="#dee2e6" stroke-width="1" opacity="0.5"/>
    </pattern>
  </defs>
  
  <!-- 背景 -->
  <rect width="400" height="400" fill="url(#bgGradient)"/>
  
  <!-- 网格 -->
  <rect width="400" height="400" fill="url(#grid)"/>
  
  <!-- 装饰性蛇形图案 -->
  <g opacity="0.1">
    <path d="M50,50 Q100,30 150,50 T250,50 Q300,30 350,50" 
          stroke="#667eea" stroke-width="3" fill="none"/>
    <path d="M50,100 Q100,80 150,100 T250,100 Q300,80 350,100" 
          stroke="#764ba2" stroke-width="3" fill="none"/>
    <path d="M50,150 Q100,130 150,150 T250,150 Q300,130 350,150" 
          stroke="#667eea" stroke-width="3" fill="none"/>
    <path d="M50,200 Q100,180 150,200 T250,200 Q300,180 350,200" 
          stroke="#764ba2" stroke-width="3" fill="none"/>
    <path d="M50,250 Q100,230 150,250 T250,250 Q300,230 350,250" 
          stroke="#667eea" stroke-width="3" fill="none"/>
    <path d="M50,300 Q100,280 150,300 T250,300 Q300,280 350,300" 
          stroke="#764ba2" stroke-width="3" fill="none"/>
    <path d="M50,350 Q100,330 150,350 T250,350 Q300,330 350,350" 
          stroke="#667eea" stroke-width="3" fill="none"/>
  </g>
  
  <!-- 角落装饰 -->
  <circle cx="20" cy="20" r="8" fill="#667eea" opacity="0.2"/>
  <circle cx="380" cy="20" r="8" fill="#764ba2" opacity="0.2"/>
  <circle cx="20" cy="380" r="8" fill="#764ba2" opacity="0.2"/>
  <circle cx="380" cy="380" r="8" fill="#667eea" opacity="0.2"/>
</svg>